<?xml version="1.0" ?>
<!DOCTYPE svg  PUBLIC '-//W3C//DTD SVG 1.1//EN'  'http://www.w3.org/Graphics/SVG/1.1/DTD/svg11.dtd'>
<!-- Uploaded to: SVG Repo, www.svgrepo.com, Generator: SVG Repo Mixer Tools -->
<svg width="800px" height="800px" viewBox="0 0 512 512" enable-background="new 0 0 512 512" id="Layer_1" version="1.1" xml:space="preserve" xmlns="http://www.w3.org/2000/svg" xmlns:xlink="http://www.w3.org/1999/xlink">
<g>
<path clip-rule="evenodd" d="M273.074,145.721c-67.977,0-123.085,55.108-123.085,123.086   c0,67.984,55.108,123.086,123.085,123.086c67.979,0,123.087-55.102,123.087-123.086   C396.161,200.829,341.053,145.721,273.074,145.721z" fill="#FEE1E3" fill-rule="evenodd"/>
<g>
<g>
<path d="M247.461,120.107c-72.697,0.007-131.617,58.932-131.622,131.624     c0.005,72.698,58.925,131.624,131.622,131.624c72.699,0,131.617-58.926,131.624-131.624     C379.078,179.039,320.16,120.114,247.461,120.107z M247.461,366.279c-63.257-0.111-114.43-51.285-114.549-114.548     c0.119-63.257,51.292-114.432,114.549-114.549c63.264,0.117,114.438,51.292,114.549,114.549     C361.899,314.994,310.725,366.168,247.461,366.279z" fill="#959595"/>
<path d="M320.543,282.383c-3.901-2.646-9.207-1.632-11.859,2.271c-13.324,19.61-35.738,32.473-61.223,32.473     c-25.919,0-48.671-13.31-61.903-33.494c-2.582-3.947-7.875-5.053-11.821-2.471c-3.941,2.582-5.045,7.876-2.465,11.822     c16.224,24.807,44.322,41.218,76.189,41.218c31.329,0,59.012-15.858,75.352-39.956     C325.459,290.343,324.444,285.029,320.543,282.383z" fill="#959595"/>
<path d="M197.327,262.023c3.382,2.939,8.493,2.752,11.653-0.43c7.106-8.126,22.764-17.718,24.111-35.02v-0.061     v-0.024c-0.078-14.047-9.708-22.631-19.072-22.708l-0.325,0.007c-4.222,0.032-7.92,1.446-10.835,3.449     c-2.871-1.982-6.509-3.398-10.688-3.449l-0.339-0.007c-9.402,0.085-19,8.714-19.078,22.772     c0.709,10.646,7.407,17.283,13.025,24.078C191.586,257.043,197.178,261.888,197.327,262.023z M191.358,221.507     c0.27-0.29,0.518-0.463,0.708-0.571c1.561,0.241,1.057,0.323,1.744,1.131c0.233,0.449,0.429,1.1,0.507,1.561     c0.078,0.377,0.02,0.377,0.071,0.377c0.138,4.663,3.992,8.355,8.656,8.291c4.663-0.065,8.415-3.869,8.419-8.531     c-0.032-0.02,0.04-0.982,0.508-1.781c0.646-0.711,0.004-0.777,1.801-1.048c0.655,0.431,2.146,1.351,2.244,5.555v0.038     c1.006,2.059-5.836,10.097-13.114,17.318c-1.396-1.391-2.931-2.976-4.462-4.671c-2.497-2.751-4.936-5.774-6.555-8.336     c-1.691-2.503-1.951-4.285-2.055-4.285C189.869,223.465,190.72,222.249,191.358,221.507z" fill="#959595"/>
<path d="M287.829,262.023c3.381,2.939,8.492,2.752,11.652-0.43c7.107-8.126,22.766-17.718,24.11-35.02v-0.061     v-0.024c-0.077-14.047-9.707-22.631-19.078-22.708l-0.324,0.007c-4.219,0.032-7.916,1.446-10.83,3.449     c-2.871-1.982-6.509-3.398-10.688-3.449l-0.337-0.007c-9.404,0.085-19,8.714-19.08,22.772     c0.703,10.646,7.401,17.283,13.025,24.078C282.087,257.043,287.679,261.888,287.829,262.023z M281.859,221.507     c0.27-0.29,0.52-0.463,0.705-0.572c1.558,0.242,1.055,0.324,1.741,1.132c0.24,0.449,0.428,1.1,0.513,1.561     c0.072,0.377,0.019,0.377,0.072,0.377c0.136,4.663,3.993,8.355,8.655,8.291c4.662-0.065,8.414-3.869,8.414-8.531     c-0.031-0.02,0.046-0.982,0.508-1.781c0.646-0.711,0.009-0.777,1.805-1.048c0.648,0.43,2.143,1.35,2.246,5.555v0.038     c1.006,2.059-5.838,10.097-13.115,17.319c-1.395-1.39-2.931-2.977-4.462-4.672c-2.497-2.751-4.936-5.774-6.555-8.336     c-1.689-2.503-1.951-4.285-2.054-4.285C280.371,223.465,281.223,222.249,281.859,221.507z" fill="#959595"/>
</g>
</g>
</g>
</svg>